<svg width="61" height="16" viewBox="0 0 61 16" fill="none" xmlns="http://www.w3.org/2000/svg">
<g filter="url(#filter0_d_1_4)">
<path d="M2.896 10.156C2.304 10.156 1.856 10.076 1.552 9.916C1.488 9.884 1.456 9.82 1.456 9.724C1.496 9.388 1.528 9.088 1.552 8.824C1.584 8.552 1.604 8.312 1.612 8.104L1.96 7.972C1.92 8.532 1.908 8.86 1.924 8.956C1.956 9.108 2.048 9.244 2.2 9.364C2.352 9.476 2.536 9.564 2.752 9.628C2.968 9.692 3.172 9.724 3.364 9.724C3.836 9.724 4.216 9.584 4.504 9.304C4.792 9.016 4.936 8.62 4.936 8.116C4.936 7.708 4.82 7.364 4.588 7.084C4.364 6.804 4.088 6.56 3.76 6.352C3.392 6.12 3.072 5.916 2.8 5.74C2.536 5.564 2.332 5.364 2.188 5.14C2.044 4.916 1.972 4.616 1.972 4.24C1.972 3.824 2.096 3.444 2.344 3.1C2.592 2.748 2.92 2.468 3.328 2.26C3.744 2.044 4.196 1.936 4.684 1.936H4.696C4.896 1.936 5.104 1.956 5.32 1.996C5.536 2.036 5.72 2.092 5.872 2.164C6.032 2.236 6.112 2.328 6.112 2.44C6 2.688 5.912 2.94 5.848 3.196C5.792 3.452 5.756 3.708 5.74 3.964L5.392 3.82C5.472 3.684 5.512 3.476 5.512 3.196C5.512 2.892 5.392 2.676 5.152 2.548C4.912 2.42 4.648 2.356 4.36 2.356C3.92 2.356 3.564 2.496 3.292 2.776C3.028 3.048 2.896 3.412 2.896 3.868C2.896 4.148 2.964 4.388 3.1 4.588C3.236 4.78 3.404 4.948 3.604 5.092C3.812 5.228 4.012 5.356 4.204 5.476C4.628 5.74 4.968 5.984 5.224 6.208C5.488 6.424 5.676 6.648 5.788 6.88C5.908 7.104 5.968 7.368 5.968 7.672C5.968 8.208 5.832 8.66 5.56 9.028C5.296 9.396 4.932 9.676 4.468 9.868C4.012 10.06 3.488 10.156 2.896 10.156ZM10.3687 10.096C10.2887 10.056 10.1087 10.024 9.82872 10C9.54872 9.968 9.13672 9.952 8.59272 9.952C8.44072 9.952 8.24472 9.96 8.00472 9.976C7.76472 9.984 7.52472 9.996 7.28472 10.012C7.05272 10.036 6.86072 10.06 6.70872 10.084L6.87672 9.736C6.91672 9.744 6.95672 9.752 6.99672 9.76C7.03672 9.76 7.07672 9.76 7.11672 9.76C7.34872 9.76 7.57672 9.712 7.80072 9.616C8.02472 9.52 8.16472 9.388 8.22072 9.22C8.26072 9.1 8.30072 8.844 8.34072 8.452C8.38072 8.052 8.42872 7.464 8.48472 6.688C8.54072 6.016 8.58072 5.484 8.60472 5.092C8.62872 4.692 8.64472 4.372 8.65272 4.132C8.66872 3.884 8.67672 3.656 8.67672 3.448C8.67672 3.024 8.64472 2.72 8.58072 2.536C8.51672 2.352 8.34872 2.26 8.07672 2.26C7.94072 2.26 7.75672 2.284 7.52472 2.332L7.70472 1.984C7.76872 1.992 7.91672 2 8.14872 2.008C8.38872 2.016 8.60472 2.02 8.79672 2.02C8.95672 2.02 9.12472 2.012 9.30072 1.996C9.48472 1.98 9.62872 1.964 9.73272 1.948L9.80472 2.104C9.63672 2.784 9.48872 4.044 9.36072 5.884C9.32872 6.38 9.30072 6.804 9.27672 7.156C9.25272 7.508 9.23672 7.824 9.22872 8.104C9.22072 8.376 9.21672 8.652 9.21672 8.932C9.21672 9.228 9.31672 9.436 9.51672 9.556C9.71672 9.676 9.95672 9.736 10.2367 9.736C10.2927 9.736 10.3447 9.736 10.3927 9.736C10.4487 9.728 10.5047 9.72 10.5607 9.712L10.3687 10.096ZM13.0567 10.168C12.6167 10.168 12.2287 10.072 11.8927 9.88C11.5647 9.68 11.2447 9.392 10.9327 9.016C10.8127 8.872 10.6767 8.7 10.5247 8.5C10.3727 8.3 10.2207 8.1 10.0687 7.9C9.92472 7.7 9.79272 7.516 9.67272 7.348C9.55272 7.18 9.46472 7.052 9.40872 6.964C9.35272 6.876 9.32472 6.804 9.32472 6.748C9.32472 6.66 9.37672 6.576 9.48072 6.496C10.0247 6.08 10.4367 5.732 10.7167 5.452C10.9967 5.172 11.1367 4.956 11.1367 4.804C11.1367 4.692 11.0927 4.616 11.0047 4.576C10.9167 4.536 10.8167 4.516 10.7047 4.516C10.6567 4.516 10.6087 4.52 10.5607 4.528C10.5127 4.528 10.4687 4.532 10.4287 4.54L10.6567 4.228C10.8487 4.26 11.0687 4.284 11.3167 4.3C11.5727 4.308 11.8367 4.312 12.1087 4.312C12.3647 4.312 12.6287 4.304 12.9007 4.288C13.1727 4.272 13.4327 4.248 13.6807 4.216L13.5007 4.552C13.0447 4.552 12.7047 4.616 12.4807 4.744C12.0167 4.992 11.5967 5.268 11.2207 5.572C10.8447 5.868 10.5047 6.196 10.2007 6.556C10.7447 7.252 11.1887 7.816 11.5327 8.248C11.8767 8.672 12.1607 8.992 12.3847 9.208C12.6167 9.424 12.8207 9.572 12.9967 9.652C13.1727 9.724 13.3607 9.76 13.5607 9.76H13.7047C13.7447 9.76 13.7887 9.76 13.8367 9.76C13.8927 9.752 13.9487 9.744 14.0047 9.736L13.8007 10.084C13.6727 10.116 13.5447 10.136 13.4167 10.144C13.2887 10.16 13.1687 10.168 13.0567 10.168ZM16.4047 3.292C16.2927 3.292 16.1527 3.216 15.9847 3.064C15.8407 2.92 15.7687 2.804 15.7687 2.716C15.7767 2.636 15.9167 2.492 16.1887 2.284C16.3887 2.132 16.5207 2.056 16.5847 2.056C16.6247 2.056 16.6807 2.084 16.7527 2.14C16.8327 2.196 16.9287 2.252 17.0407 2.308C17.1607 2.364 17.2967 2.392 17.4487 2.392L17.4967 2.572C17.3687 2.676 17.2287 2.784 17.0767 2.896C16.9327 3.008 16.8007 3.104 16.6807 3.184C16.5607 3.256 16.4687 3.292 16.4047 3.292ZM14.2087 10.096L14.3887 9.748C15.1647 9.748 15.6087 9.572 15.7207 9.22C15.7527 9.108 15.7847 8.932 15.8167 8.692C15.8487 8.452 15.8767 8.184 15.9007 7.888C15.9247 7.584 15.9447 7.28 15.9607 6.976C15.9847 6.672 16.0007 6.396 16.0087 6.148C16.0247 5.892 16.0327 5.7 16.0327 5.572C16.0327 5.292 16.0207 5.076 15.9967 4.924C15.9807 4.764 15.9247 4.652 15.8287 4.588C15.7407 4.524 15.5927 4.492 15.3847 4.492C15.2327 4.492 15.0607 4.516 14.8687 4.564L15.0487 4.216C15.1847 4.232 15.3607 4.244 15.5767 4.252C15.8007 4.26 16.0447 4.264 16.3087 4.264C16.4207 4.264 16.5527 4.252 16.7047 4.228C16.8567 4.204 16.9487 4.192 16.9807 4.192C17.0927 4.192 17.1487 4.24 17.1487 4.336C17.1487 4.376 17.1407 4.424 17.1247 4.48C17.1087 4.536 17.0927 4.6 17.0767 4.672C17.0447 4.8 17.0087 4.992 16.9687 5.248C16.9367 5.504 16.9047 5.792 16.8727 6.112C16.8407 6.432 16.8127 6.756 16.7887 7.084C16.7647 7.404 16.7447 7.704 16.7287 7.984C16.7127 8.256 16.7047 8.476 16.7047 8.644C16.7047 8.98 16.7447 9.224 16.8247 9.376C16.9047 9.528 17.0407 9.624 17.2327 9.664C17.4327 9.696 17.7007 9.716 18.0367 9.724L17.8447 10.096C17.6527 10.048 17.4447 10.012 17.2207 9.988C16.9967 9.964 16.7367 9.952 16.4407 9.952C16.1367 9.952 15.8127 9.964 15.4687 9.988C15.1247 10.012 14.7047 10.048 14.2087 10.096ZM22.0953 10.096L22.3233 9.7C22.4593 9.708 22.6073 9.68 22.7673 9.616C22.9273 9.544 23.0353 9.44 23.0913 9.304C23.1393 9.208 23.1753 9.076 23.1993 8.908C23.2313 8.74 23.2593 8.532 23.2833 8.284C23.3233 7.74 23.3513 7.316 23.3673 7.012C23.3913 6.708 23.4073 6.484 23.4153 6.34C23.4233 6.196 23.4273 6.088 23.4273 6.016C23.4273 5.12 23.1313 4.672 22.5393 4.672C22.3473 4.672 22.1673 4.7 21.9993 4.756C21.8393 4.812 21.6793 4.88 21.5193 4.96C21.1913 5.128 20.9433 5.312 20.7753 5.512L20.6913 6.7C20.6593 7.164 20.6353 7.568 20.6193 7.912C20.6113 8.256 20.6073 8.544 20.6073 8.776C20.6073 8.88 20.6073 8.972 20.6073 9.052C20.6073 9.124 20.6113 9.188 20.6193 9.244C20.6513 9.572 20.9593 9.732 21.5433 9.724L21.3513 10.084C21.1593 10.004 20.7353 9.96 20.0793 9.952C20.0153 9.952 19.8153 9.964 19.4793 9.988C19.1513 10.012 18.6913 10.044 18.0993 10.084L18.2793 9.748C19.0473 9.748 19.4833 9.58 19.5873 9.244C19.6273 9.108 19.6713 8.832 19.7193 8.416C19.7673 8 19.8193 7.424 19.8753 6.688C19.8913 6.48 19.9033 6.288 19.9113 6.112C19.9193 5.928 19.9233 5.76 19.9233 5.608C19.9233 5.272 19.9073 5.024 19.8753 4.864C19.8433 4.704 19.7593 4.604 19.6233 4.564C19.4953 4.516 19.2833 4.492 18.9873 4.492C18.8913 4.492 18.8073 4.496 18.7353 4.504C18.6633 4.512 18.5953 4.528 18.5313 4.552L18.7353 4.192C18.7593 4.2 18.8753 4.212 19.0833 4.228C19.2993 4.236 19.5553 4.24 19.8513 4.24C20.0353 4.24 20.2113 4.236 20.3793 4.228C20.5553 4.212 20.6873 4.204 20.7753 4.204C20.8953 4.204 20.9553 4.264 20.9553 4.384C20.9553 4.448 20.9353 4.552 20.8953 4.696C20.8553 4.832 20.8353 4.924 20.8353 4.972C20.9793 4.884 21.1113 4.808 21.2313 4.744C21.3593 4.672 21.4753 4.6 21.5793 4.528C21.9953 4.232 22.4633 4.084 22.9833 4.084C23.1273 4.084 23.2593 4.096 23.3793 4.12C24.0433 4.216 24.3753 4.528 24.3753 5.056C24.3753 5.192 24.3673 5.348 24.3513 5.524C24.3353 5.7 24.3233 5.892 24.3153 6.1C24.3073 6.18 24.2953 6.34 24.2793 6.58C24.2713 6.812 24.2593 7.072 24.2433 7.36C24.2353 7.64 24.2273 7.892 24.2193 8.116C24.2113 8.34 24.2073 8.484 24.2073 8.548C24.2073 8.9 24.2233 9.16 24.2553 9.328C24.2953 9.496 24.3953 9.604 24.5553 9.652C24.7153 9.7 24.9713 9.728 25.3233 9.736C25.4913 9.736 25.6153 9.728 25.6953 9.712L25.4913 10.072C25.1873 10.04 24.8913 10.016 24.6033 10C24.3153 9.984 24.0353 9.976 23.7633 9.976C23.5393 9.984 23.2873 9.996 23.0073 10.012C22.7273 10.028 22.4233 10.056 22.0953 10.096Z" fill="black"/>
<path d="M33.771 10.156C32.691 10.156 31.779 9.928 31.035 9.472C30.611 9.216 30.279 8.904 30.039 8.536C29.799 8.168 29.627 7.772 29.523 7.348C29.427 6.924 29.379 6.5 29.379 6.076C29.379 5.316 29.515 4.7 29.787 4.228C30.067 3.748 30.431 3.332 30.879 2.98C31.359 2.596 31.895 2.324 32.487 2.164C33.087 2.004 33.719 1.924 34.383 1.924C35.551 1.924 36.627 2.116 37.611 2.5L37.527 2.668C37.423 2.612 37.291 2.832 37.131 3.328C37.011 3.728 36.939 4.064 36.915 4.336C36.915 4.368 36.911 4.416 36.903 4.48L36.639 4.42C36.655 4.356 36.663 4.3 36.663 4.252C36.671 4.204 36.679 4.156 36.687 4.108C36.703 3.78 36.647 3.524 36.519 3.34C36.399 3.156 36.139 2.98 35.739 2.812C35.259 2.604 34.659 2.5 33.939 2.5C32.947 2.5 32.159 2.744 31.575 3.232C31.191 3.552 30.923 3.952 30.771 4.432C30.627 4.904 30.555 5.4 30.555 5.92C30.555 6.912 30.811 7.736 31.323 8.392C31.915 9.152 32.731 9.532 33.771 9.532C34.243 9.532 34.747 9.472 35.283 9.352C35.819 9.224 36.383 9.028 36.975 8.764L36.951 9.076C36.615 9.268 36.347 9.42 36.147 9.532C35.947 9.644 35.811 9.716 35.739 9.748C35.083 10.02 34.427 10.156 33.771 10.156ZM42.2377 10.132C42.0137 10.132 41.8697 10.052 41.8057 9.892C41.7417 9.732 41.7097 9.476 41.7097 9.124C41.5337 9.244 41.3337 9.38 41.1097 9.532C40.8937 9.676 40.6537 9.804 40.3897 9.916C40.1257 10.028 39.8377 10.084 39.5257 10.084C39.1497 10.084 38.8457 9.94 38.6137 9.652C38.3817 9.356 38.2657 8.988 38.2657 8.548C38.2657 8.244 38.3337 8.024 38.4697 7.888C38.6137 7.752 38.7577 7.632 38.9017 7.528C38.9817 7.472 39.0897 7.392 39.2257 7.288C39.3617 7.184 39.5017 7.084 39.6457 6.988C39.7977 6.884 39.9217 6.812 40.0177 6.772C40.1377 6.724 40.3097 6.688 40.5337 6.664C40.7657 6.632 41.0057 6.608 41.2537 6.592C41.5097 6.576 41.7297 6.568 41.9137 6.568C41.9377 6.336 41.9497 6.124 41.9497 5.932C41.9497 5.54 41.8857 5.236 41.7577 5.02C41.6297 4.804 41.4057 4.696 41.0857 4.696C40.5577 4.696 40.1177 4.84 39.7657 5.128C39.5897 5.28 39.4497 5.432 39.3457 5.584C39.2417 5.728 39.1897 5.932 39.1897 6.196L39.2017 6.544L38.8777 6.772C38.8777 6.732 38.8777 6.692 38.8777 6.652C38.8857 6.604 38.8897 6.564 38.8897 6.532C38.8897 6.404 38.8817 6.28 38.8657 6.16C38.8497 6.032 38.8257 5.888 38.7937 5.728C38.7697 5.592 38.7497 5.496 38.7337 5.44C38.7257 5.384 38.7217 5.344 38.7217 5.32C38.7217 5.224 38.7777 5.12 38.8897 5.008C39.0097 4.896 39.1097 4.812 39.1897 4.756C39.4857 4.564 39.8377 4.432 40.2457 4.36C40.6617 4.28 41.0537 4.24 41.4217 4.24C41.9577 4.24 42.3417 4.356 42.5737 4.588C42.8057 4.812 42.9217 5.104 42.9217 5.464C42.9217 5.736 42.9097 6.048 42.8857 6.4C42.8697 6.744 42.8497 7.092 42.8257 7.444C42.8097 7.796 42.7897 8.124 42.7657 8.428C42.7497 8.724 42.7417 8.968 42.7417 9.16C42.7417 9.376 42.8057 9.524 42.9337 9.604C43.0617 9.676 43.2337 9.712 43.4497 9.712C43.5057 9.712 43.5617 9.712 43.6177 9.712C43.6817 9.704 43.7457 9.696 43.8097 9.688L43.8697 9.76L43.6777 10.084C43.6137 10.076 43.5097 10.072 43.3657 10.072C43.2217 10.08 43.0697 10.088 42.9097 10.096C42.7497 10.104 42.6057 10.112 42.4777 10.12C42.3577 10.128 42.2777 10.132 42.2377 10.132ZM40.1257 9.304C40.3017 9.304 40.4897 9.272 40.6897 9.208C40.8897 9.136 41.0617 9.06 41.2057 8.98C41.4137 8.836 41.5537 8.688 41.6257 8.536C41.7057 8.384 41.7577 8.196 41.7817 7.972C41.8057 7.74 41.8337 7.448 41.8657 7.096C41.3857 7.112 40.9897 7.144 40.6777 7.192C40.3737 7.232 40.1297 7.284 39.9457 7.348C39.6817 7.444 39.4857 7.588 39.3577 7.78C39.2297 7.972 39.1657 8.172 39.1657 8.38C39.1657 8.62 39.2457 8.836 39.4057 9.028C39.5737 9.212 39.8137 9.304 40.1257 9.304ZM43.8089 10.096L44.0129 9.712C44.0369 9.72 44.0609 9.724 44.0849 9.724C44.1169 9.724 44.1489 9.724 44.1809 9.724C44.3889 9.724 44.6009 9.676 44.8169 9.58C45.0329 9.484 45.1729 9.34 45.2369 9.148C45.2689 9.06 45.2969 8.904 45.3209 8.68C45.3529 8.448 45.3809 8.184 45.4049 7.888C45.4369 7.584 45.4649 7.28 45.4889 6.976C45.5129 6.664 45.5289 6.38 45.5369 6.124C45.5529 5.868 45.5609 5.672 45.5609 5.536C45.5609 5.232 45.5449 5.008 45.5129 4.864C45.4809 4.712 45.3969 4.612 45.2609 4.564C45.1329 4.516 44.9209 4.492 44.6249 4.492C44.5289 4.492 44.4449 4.496 44.3729 4.504C44.3009 4.512 44.2329 4.528 44.1689 4.552L44.3729 4.192C44.3969 4.2 44.5289 4.212 44.7689 4.228C45.0169 4.236 45.3249 4.24 45.6929 4.24C45.8609 4.24 46.0129 4.236 46.1489 4.228C46.2849 4.212 46.3729 4.204 46.4129 4.204C46.5329 4.204 46.5929 4.264 46.5929 4.384C46.5929 4.408 46.5769 4.5 46.5449 4.66C46.5209 4.82 46.4889 4.984 46.4489 5.152C46.5129 5.088 46.6009 5.012 46.7129 4.924C46.8329 4.828 46.9569 4.728 47.0849 4.624C47.4689 4.336 47.8769 4.192 48.3089 4.192C48.7169 4.192 49.0129 4.284 49.1969 4.468C49.3889 4.644 49.4849 4.912 49.4849 5.272C49.4849 5.36 49.4449 5.452 49.3649 5.548C49.2929 5.644 49.2089 5.732 49.1129 5.812C49.0169 5.892 48.9369 5.952 48.8729 5.992L48.6929 5.932C48.7009 5.9 48.7049 5.868 48.7049 5.836C48.7049 5.804 48.7049 5.772 48.7049 5.74C48.7049 5.604 48.6809 5.46 48.6329 5.308C48.5929 5.156 48.5169 5.028 48.4049 4.924C48.2929 4.82 48.1329 4.768 47.9249 4.768C47.7249 4.768 47.5009 4.848 47.2529 5.008C47.0049 5.16 46.7969 5.352 46.6289 5.584C46.5089 5.744 46.4289 5.892 46.3889 6.028C46.3489 6.156 46.3249 6.308 46.3169 6.484C46.3169 6.652 46.3089 6.876 46.2929 7.156C46.2849 7.404 46.2769 7.66 46.2689 7.924C46.2609 8.188 46.2569 8.436 46.2569 8.668C46.2569 8.772 46.2569 8.868 46.2569 8.956C46.2569 9.044 46.2609 9.128 46.2689 9.208C46.2849 9.416 46.3929 9.56 46.5929 9.64C46.8009 9.712 47.0289 9.748 47.2769 9.748C47.4449 9.748 47.6049 9.736 47.7569 9.712L47.5409 10.072C47.3409 10.048 47.0889 10.028 46.7849 10.012C46.4809 9.996 46.1209 9.988 45.7049 9.988C45.2889 9.988 44.9209 9.996 44.6009 10.012C44.2809 10.036 44.0169 10.064 43.8089 10.096ZM52.2422 10.144C51.4022 10.144 50.8222 9.944 50.5022 9.544C50.1902 9.144 50.0342 8.552 50.0342 7.768C50.0342 7.344 50.0742 6.916 50.1542 6.484C50.2422 6.052 50.3822 5.676 50.5742 5.356C51.0302 4.548 51.8782 4.144 53.1182 4.144C53.8382 4.144 54.3702 4.316 54.7142 4.66C55.0422 4.988 55.1822 5.432 55.1342 5.992C55.1022 6.04 55.0542 6.104 54.9902 6.184C54.9262 6.256 54.8462 6.348 54.7502 6.46C54.6462 6.596 54.5542 6.704 54.4742 6.784C54.4022 6.856 54.3462 6.888 54.3062 6.88C54.2182 6.872 54.1222 6.868 54.0182 6.868C53.9222 6.86 53.8222 6.856 53.7182 6.856C53.5342 6.856 53.3662 6.86 53.2142 6.868C53.0622 6.868 52.9062 6.868 52.7462 6.868C52.5782 6.868 52.3782 6.872 52.1462 6.88C51.9142 6.888 51.6982 6.9 51.4982 6.916C51.2982 6.924 51.1582 6.932 51.0782 6.94C51.0542 7.26 51.0422 7.548 51.0422 7.804C51.0422 8.42 51.1502 8.884 51.3662 9.196C51.5902 9.508 52.0062 9.664 52.6142 9.664C53.6702 9.664 54.3302 9.18 54.5942 8.212C54.6022 8.172 54.6062 8.136 54.6062 8.104C54.6062 8.072 54.6102 8.048 54.6182 8.032L54.9782 7.864C54.9702 7.936 54.9542 8.044 54.9302 8.188C54.9142 8.332 54.8942 8.524 54.8702 8.764C54.8702 8.844 54.8702 8.932 54.8702 9.028C54.8702 9.124 54.8662 9.232 54.8582 9.352C54.8342 9.456 54.7702 9.548 54.6662 9.628C54.4822 9.804 54.1822 9.932 53.7662 10.012C53.3582 10.1 52.8502 10.144 52.2422 10.144ZM51.9422 6.4C52.0302 6.4 52.1262 6.4 52.2302 6.4C52.3422 6.4 52.4582 6.396 52.5782 6.388C52.9142 6.38 53.2022 6.368 53.4422 6.352C53.6902 6.336 53.8902 6.32 54.0422 6.304C54.1702 6.28 54.2462 6.164 54.2702 5.956C54.2702 5.524 54.1542 5.192 53.9222 4.96C53.6902 4.72 53.3582 4.6 52.9262 4.6C52.0862 4.6 51.5382 4.984 51.2822 5.752C51.2502 5.864 51.2222 5.964 51.1982 6.052C51.1822 6.14 51.1662 6.24 51.1502 6.352C51.2302 6.368 51.3342 6.38 51.4622 6.388C51.5982 6.396 51.7582 6.4 51.9422 6.4Z" fill="#AB7B60"/>
</g>
<defs>
<filter id="filter0_d_1_4" x="0.455994" y="0.924011" width="59.7502" height="14.244" filterUnits="userSpaceOnUse" color-interpolation-filters="sRGB">
<feFlood flood-opacity="0" result="BackgroundImageFix"/>
<feColorMatrix in="SourceAlpha" type="matrix" values="0 0 0 0 0 0 0 0 0 0 0 0 0 0 0 0 0 0 127 0" result="hardAlpha"/>
<feOffset dx="2" dy="2"/>
<feGaussianBlur stdDeviation="1.5"/>
<feComposite in2="hardAlpha" operator="out"/>
<feColorMatrix type="matrix" values="0 0 0 0 0 0 0 0 0 0 0 0 0 0 0 0 0 0 0.5 0"/>
<feBlend mode="normal" in2="BackgroundImageFix" result="effect1_dropShadow_1_4"/>
<feBlend mode="normal" in="SourceGraphic" in2="effect1_dropShadow_1_4" result="shape"/>
</filter>
</defs>
</svg>
